<?xml version="1.0" standalone="no"?>
<!DOCTYPE svg PUBLIC "-//W3C//DTD SVG 20010904//EN"
 "http://www.w3.org/TR/2001/REC-SVG-20010904/DTD/svg10.dtd">
<svg version="1.0" xmlns="http://www.w3.org/2000/svg"
 width="32.000000pt" height="32.000000pt" viewBox="0 0 32.000000 32.000000"
 preserveAspectRatio="xMidYMid meet">

<g transform="translate(0.000000,32.000000) scale(0.100000,-0.100000)"
fill="#2B85E5" stroke="none">
<path d="M104 301 c-36 -22 -57 -71 -47 -110 3 -14 19 -44 34 -65 l29 -40 -29
-12 c-49 -21 -49 -44 2 -63 56 -22 159 -7 171 24 6 15 -29 45 -52 45 -12 0
-11 4 2 23 9 12 26 41 37 65 17 37 19 48 9 78 -13 39 -60 74 -100 74 -14 0
-39 -9 -56 -19z m124 -27 c36 -41 30 -90 -19 -155 -22 -30 -44 -54 -49 -54 -5
0 -27 24 -49 54 -45 61 -53 109 -25 149 34 48 102 51 142 6z m-82 -221 c13
-17 15 -17 28 0 20 26 76 20 76 -9 0 -12 -57 -34 -90 -34 -33 0 -90 22 -90 35
0 28 56 33 76 8z"/>
<path d="M192 276 c10 -7 24 -26 33 -42 8 -17 15 -22 15 -13 0 21 -38 69 -53
69 -7 0 -4 -7 5 -14z"/>
<path d="M136 247 c-22 -16 -18 -55 7 -71 39 -24 79 44 41 71 -10 7 -21 13
-24 13 -3 0 -14 -6 -24 -13z m51 -23 c3 -8 -2 -23 -11 -32 -15 -15 -17 -15
-32 0 -21 21 -11 48 16 48 11 0 23 -7 27 -16z"/>
</g>
</svg>
